<?xml version="1.0" encoding="utf-8"?>
<!-- Generator: Adobe Illustrator 26.0.2, SVG Export Plug-In . SVG Version: 6.00 Build 0)  -->
<svg version="1.1" id="Capa_1" xmlns="http://www.w3.org/2000/svg" xmlns:xlink="http://www.w3.org/1999/xlink" x="0px" y="0px"
	 viewBox="0 0 35 35" style="enable-background:new 0 0 35 35;" xml:space="preserve">
<style type="text/css">
	.st0{fill:#FFFFFF;}
</style>
<path id="Tracé_3188" class="st0" d="M11,1.5C2.2,5.1-2.1,15.1,1.5,24c0,0,0,0,0,0c0.9,2.1,2.2,4.1,3.8,5.7
	c1.6,1.6,3.6,2.9,5.7,3.8c8.8,3.6,18.9-0.7,22.5-9.5S32.8,5.1,24,1.5C19.8-0.2,15.2-0.2,11,1.5L11,1.5z M4.5,24.8
	c-0.8-0.5-1.6-1.1-2.3-1.8c-1-2.9-1.2-6.1-0.5-9.1c0.3-0.6,0.7-1.2,1.1-1.8c0.1-0.2,0.2-0.4,0.4-0.5l4,2.3v0.1
	c0,2.1,0.2,4.2,0.6,6.2l0,0l-3.1,4.8L4.5,24.8z M16.1,32.8c0.7,0.3,1.4,0.6,2.1,0.9c-3.1,0.1-6.1-0.6-8.8-2.1l6.6,1.1L16.1,32.8z
	 M16.1,31.6l-7.7-1.4C7.5,29.1,6.7,28,6,26.7c-0.2-0.3-0.4-0.6-0.5-1l3-4.7l0.2,0.1c1.9,0.5,3.8,0.9,5.8,1.1h0.3l3.6,6.3
	c-0.6,0.9-1.3,1.8-1.9,2.6C16.4,31.3,16.3,31.5,16.1,31.6L16.1,31.6z M29,29c-0.6,0.6-1.3,1.2-2,1.7c-0.1-0.9-0.3-1.8-0.6-2.7
	l3.9-7.2c1.1-0.5,2.1-1.1,3-1.8c0.1-0.1,0.2-0.2,0.3-0.3C33.4,22.6,31.7,26.2,29,29L29,29z M28.8,19.6l0.4,0.8l-3.7,7h-0.1
	c-2,0.4-4.1,0.6-6.1,0.6l-3.8-6.4c0.6-1.1,1.2-2.2,1.7-3.2c0.4-0.7,0.8-1.5,1.1-2.2l7.7-0.8C27.1,16.7,28,18.1,28.8,19.6L28.8,19.6z
	 M27.3,11.3c-0.4,1-0.8,1.9-1.1,2.9L18.6,15c-0.1-0.1-0.2-0.2-0.3-0.3l-2.7-3l0,0l-1.1-1.1l2.1-6.3c0.1-0.1,0.3-0.1,0.4-0.1
	c1.1-0.1,2.3-0.2,3.4-0.3c0.7,0,1.4,0,2.1,0l5.2,5.8C27.6,10.2,27.4,10.8,27.3,11.3L27.3,11.3z M29,6.1c1.4,1.4,2.5,3,3.3,4.8
	c-1-0.7-2-1.2-3.1-1.7L28.7,9l-5.1-5.8c0-0.2,0-0.5,0.1-0.7C25.6,3.3,27.4,4.5,29,6.1L29,6.1z M12.3,2.2L12.3,2.2
	c1.1,0.4,2.2,1,3.2,1.7l-2,5.9l0,0c-0.4,0.2-0.8,0.3-1.2,0.5c-1.6,0.7-3.2,1.6-4.7,2.5l-3.9-2.3c0-0.1,0-0.2,0.1-0.3
	c0.3-0.7,0.5-1.4,0.8-2.1c0.2-0.5,0.5-1,0.8-1.5C5.7,6.4,5.9,6.2,6.1,6C7.8,4.3,10,3,12.3,2.2L12.3,2.2z"/>
</svg>
